HIERARCHY
ROOT Joint1
{
	OFFSET 0.000000 0.000000 0.000000
	CHANNELS 6 Xposition Yposition Zposition Xrotation Yrotation Zrotation
	JOINT Joint2
	{
		OFFSET -0.000000 0.000000 1.456275
		CHANNELS 6 Xposition Yposition Zposition Xrotation Yrotation Zrotation
		JOINT Joint3
		{
			OFFSET -0.000000 0.000002 1.471446
			CHANNELS 6 Xposition Yposition Zposition Xrotation Yrotation Zrotation
			JOINT Joint4
			{
				OFFSET 0.625745 0.000000 0.917755
				CHANNELS 6 Xposition Yposition Zposition Xrotation Yrotation Zrotation
				JOINT Joint5
				{
					OFFSET -0.629534 0.000001 0.940221
					CHANNELS 6 Xposition Yposition Zposition Xrotation Yrotation Zrotation
					JOINT Joint6
					{
						OFFSET -0.000001 0.113772 1.960660
						CHANNELS 6 Xposition Yposition Zposition Xrotation Yrotation Zrotation
						JOINT Joint7
						{
							OFFSET -0.669733 -0.113771 0.388340
							CHANNELS 6 Xposition Yposition Zposition Xrotation Yrotation Zrotation
							End Site
							{
								OFFSET 0.005509 0.005509 0.438980
							}
						}
					}
				}
			}
		}
	}
}
MOTION
Frames: 22
Frame Time: 0.041667
0.000000 0.000000 0.000000 -0.000000 1.019410 -0.003329 -0.000000 -0.000000 1.456275 -0.000000 -44.976256 0.000000 -0.000000 0.000002 1.471446 0.000000 -1.133460 -0.025981 0.625745 0.000000 0.917755 0.000004 135.007855 -0.000001 -0.629533 0.000001 0.940221 0.000000 1.709736 -0.000423 -0.000001 0.113772 1.960661 -88.308533 89.957587 -0.002833 -0.669733 -0.113771 0.388341 -0.705100 3.566198 134.960153 
0.000000 0.000000 0.000000 -0.000000 1.019410 0.015637 -0.000000 0.000000 1.456275 -0.000000 -44.958668 0.000000 -0.000000 0.000002 1.471446 0.000000 -1.133459 0.005513 0.625745 0.000000 0.917755 0.000004 134.961273 -0.000001 -0.629534 0.000001 0.940221 -0.000000 1.709736 0.058957 -0.000001 0.113772 1.960660 -88.305870 89.909830 -0.001344 -0.669733 -0.113771 0.388339 -0.704969 3.566197 134.952735 
0.000000 0.000000 0.000000 -0.000000 1.019410 0.047594 -0.000000 0.000000 1.456275 -0.000000 -44.929015 0.000000 -0.000000 0.000002 1.471446 0.000000 -1.133462 0.058578 0.625745 0.000000 0.917755 0.000004 134.882794 -0.000001 -0.629534 0.000001 0.940221 0.000000 1.709736 0.159006 -0.000000 0.113772 1.960660 -88.305002 89.829364 -0.000748 -0.669733 -0.113771 0.388340 -0.704747 3.566198 134.940250 
0.000000 0.000000 0.000000 -0.000000 1.019410 0.092824 -0.000000 0.000000 1.456275 -0.000000 -44.887057 -0.000000 -0.000000 0.000002 1.471446 -0.000000 -1.133463 0.133683 0.625745 0.000000 0.917755 0.000004 134.771735 -0.000001 -0.629534 0.000001 0.940221 -0.000000 1.709736 0.300608 -0.000001 0.113772 1.960660 -88.304524 89.715491 -0.000405 -0.669733 -0.113771 0.388340 -0.704433 3.566197 134.922560 
0.000000 0.000000 0.000000 -0.000000 1.019410 0.151608 -0.000000 0.000000 1.456275 -0.000000 -44.832515 0.000000 -0.000000 0.000002 1.471445 0.000000 -1.133456 0.231296 0.625744 0.000000 0.917755 0.000004 134.627373 -0.000001 -0.629534 0.000001 0.940221 0.000000 1.709736 0.484649 -0.000000 0.113772 1.960660 -88.304319 89.567474 -0.000288 -0.669733 -0.113771 0.388339 -0.704025 3.566197 134.899583 
0.000000 0.000000 0.000000 -0.000000 1.019410 0.224231 -0.000000 0.000000 1.456275 0.000000 -44.765138 0.000000 -0.000000 0.000002 1.471446 -0.000000 -1.133462 0.351887 0.625745 0.000000 0.917755 0.000003 134.449050 -0.000001 -0.629533 0.000001 0.940221 -0.000000 1.709736 0.712013 -0.000000 0.113772 1.960660 -88.304189 89.384630 -0.000205 -0.669733 -0.113771 0.388339 -0.703520 3.566195 134.871183 
0.000000 0.000000 0.000000 -0.000000 1.019410 0.310974 -0.000000 -0.000000 1.456275 0.000000 -44.684662 0.000000 -0.000001 0.000002 1.471446 0.000000 -1.133462 0.495927 0.625744 0.000000 0.917755 0.000003 134.236030 -0.000001 -0.629533 0.000001 0.940221 0.000000 1.709736 0.983586 -0.000001 0.113772 1.960660 -88.304108 89.166221 -0.000154 -0.669733 -0.113771 0.388340 -0.702918 3.566194 134.837278 
0.000000 0.000000 0.000000 -0.000000 1.019410 0.412121 -0.000000 -0.000000 1.456275 -0.000000 -44.590822 0.000000 -0.000000 0.000002 1.471446 0.000000 -1.133462 0.663883 0.625745 0.000000 0.917755 0.000004 133.987643 -0.000001 -0.629534 0.000001 0.940221 0.000000 1.709737 1.300252 -0.000000 0.113772 1.960660 -88.304060 88.911550 -0.000111 -0.669733 -0.113771 0.388340 -0.702215 3.566191 134.797731 
0.000000 0.000000 0.000000 -0.000000 1.019410 0.527954 -0.000000 0.000000 1.456275 0.000000 -44.483359 -0.000000 -0.000001 0.000002 1.471445 -0.000000 -1.133463 0.856226 0.625745 0.000000 0.917755 0.000004 133.703193 -0.000001 -0.629534 0.000001 0.940221 -0.000000 1.709736 1.662896 -0.000001 0.113772 1.960661 -88.304019 88.619901 -0.000090 -0.669733 -0.113771 0.388340 -0.701411 3.566188 134.752420 
0.000000 0.000000 0.000000 -0.000000 1.019410 0.658755 -0.000000 -0.000000 1.456275 0.000000 -44.362007 0.000000 -0.000000 0.000002 1.471446 0.000000 -1.133459 1.073425 0.625744 0.000000 0.917755 0.000004 133.381983 -0.000001 -0.629533 0.000001 0.940221 0.000000 1.709736 2.072404 -0.000000 0.113772 1.960661 -88.303998 88.290563 -0.000075 -0.669733 -0.113771 0.388340 -0.700502 3.566184 134.701289 
0.000000 0.000000 0.000000 -0.000000 1.019410 0.804808 -0.000000 0.000000 1.456275 0.000000 -44.226510 -0.000000 -0.000001 0.000002 1.471446 0.000000 -1.133462 1.315949 0.625744 0.000000 0.917755 0.000004 133.023330 -0.000001 -0.629534 0.000001 0.940221 0.000000 1.709736 2.529660 -0.000000 0.113772 1.960660 -88.303971 87.922826 -0.000060 -0.669733 -0.113771 0.388340 -0.699488 3.566179 134.644202 
0.000000 0.000000 0.000000 -0.000000 1.019410 0.966395 -0.000000 -0.000000 1.456275 0.000000 -44.076590 0.000000 -0.000001 0.000002 1.471446 0.000000 -1.133462 1.584267 0.625745 0.000000 0.917755 0.000004 132.626523 -0.000001 -0.629534 0.000001 0.940221 0.000000 1.709737 3.035549 -0.000002 0.113772 1.960660 -88.303957 87.515979 -0.000050 -0.669733 -0.113771 0.388341 -0.698366 3.566171 134.581023 
0.000000 0.000000 0.000000 -0.000000 1.019410 1.143798 -0.000000 0.000000 1.456275 -0.000000 -43.912007 0.000000 -0.000000 0.000002 1.471446 -0.000000 -1.133459 1.878850 0.625745 0.000000 0.917755 0.000004 132.190880 -0.000001 -0.629534 0.000001 0.940221 0.000000 1.709736 3.590957 -0.000000 0.113772 1.960660 -88.303950 87.069305 -0.000042 -0.669733 -0.113771 0.388340 -0.697134 3.566161 134.511655 
0.000000 0.000000 0.000000 -0.000000 1.019410 1.337301 -0.000000 0.000000 1.456275 -0.000000 -43.732479 -0.000000 -0.000000 0.000002 1.471446 0.000000 -1.133458 2.200166 0.625745 0.000000 0.917755 0.000004 131.715690 -0.000001 -0.629534 0.000001 0.940221 0.000000 1.709737 4.196768 -0.000001 0.113772 1.960661 -88.303937 86.582101 -0.000036 -0.669733 -0.113771 0.388340 -0.695791 3.566149 134.436018 
0.000000 0.000000 0.000000 -0.000000 1.019410 1.547187 -0.000000 0.000000 1.456275 -0.000000 -43.537757 0.000000 -0.000000 0.000002 1.471446 0.000000 -1.133458 2.548685 0.625745 0.000000 0.917755 0.000003 131.200284 -0.000001 -0.629534 0.000001 0.940221 -0.000000 1.709737 4.853866 -0.000000 0.113772 1.960660 -88.303930 86.053642 -0.000031 -0.669733 -0.113771 0.388341 -0.694333 3.566133 134.353946 
0.000000 0.000000 0.000000 -0.000000 1.019410 1.773447 -0.000000 0.000000 1.456275 -0.000000 -43.327841 -0.000000 -0.000000 0.000002 1.471446 0.000000 -1.133458 2.924396 0.625744 0.000000 0.917755 0.000003 130.644648 -0.000001 -0.629534 0.000001 0.940221 -0.000000 1.709736 5.562235 -0.000001 0.113772 1.960661 -88.303930 85.483950 -0.000027 -0.669733 -0.113771 0.388340 -0.692762 3.566115 134.265495 
0.000000 0.000000 0.000000 -0.000000 1.019410 2.014922 -0.000000 0.000000 1.456275 0.000000 -43.103808 -0.000000 -0.000001 0.000002 1.471446 0.000000 -1.133456 3.325371 0.625745 0.000000 0.917755 0.000003 130.051679 -0.000000 -0.629534 0.000001 0.940221 0.000001 1.709736 6.318236 -0.000001 0.113772 1.960661 -88.303916 84.875960 -0.000023 -0.669733 -0.113771 0.388341 -0.691085 3.566091 134.171075 
0.000000 0.000000 0.000000 -0.000000 1.019410 2.270162 -0.000000 -0.000000 1.456275 -0.000000 -42.867015 -0.000000 -0.000000 0.000002 1.471445 0.000000 -1.133458 3.749201 0.625745 0.000000 0.917755 0.000005 129.424886 -0.000000 -0.629534 0.000001 0.940220 -0.000001 1.709737 7.117330 -0.000000 0.113772 1.960660 -88.303916 84.233315 -0.000022 -0.669733 -0.113771 0.388339 -0.689313 3.566065 134.071286 
0.000000 0.000000 0.000000 -0.000000 1.019410 2.537715 -0.000000 0.000000 1.456275 -0.000000 -42.618789 0.000000 -0.000000 0.000002 1.471446 -0.000000 -1.133461 4.193480 0.625745 0.000000 0.917755 0.000003 128.767863 -0.000001 -0.629534 0.000001 0.940221 -0.000001 1.709737 7.954974 -0.000000 0.113772 1.960660 -88.303916 83.559653 -0.000018 -0.669733 -0.113771 0.388340 -0.687456 3.566032 133.966688 
0.000000 0.000000 0.000000 -0.000000 1.019410 2.816132 -0.000000 -0.000000 1.456275 0.000000 -42.360478 0.000000 -0.000000 0.000002 1.471446 0.000000 -1.133458 4.655797 0.625745 0.000000 0.917755 0.000004 128.084147 -0.000001 -0.629533 0.000001 0.940221 0.000000 1.709737 8.826628 -0.000001 0.113772 1.960660 -88.303909 82.858644 -0.000017 -0.669733 -0.113771 0.388340 -0.685522 3.565994 133.857829 
0.000000 0.000000 0.000000 -0.000000 1.019410 3.103961 -0.000000 -0.000000 1.456275 -0.000000 -42.093442 -0.000000 -0.000000 0.000002 1.471446 -0.000000 -1.133462 5.133744 0.625745 0.000000 0.917755 0.000003 127.377332 -0.000001 -0.629534 0.000001 0.940221 0.000000 1.709737 9.727753 -0.000001 0.113772 1.960661 -88.303909 82.133947 -0.000017 -0.669733 -0.113771 0.388339 -0.683524 3.565955 133.745308 
0.000000 0.000000 0.000000 -0.000000 1.019410 3.399971 -0.000000 -0.000000 1.456275 -0.000000 -41.818824 0.000000 -0.000000 0.000002 1.471446 -0.000000 -1.133460 5.625275 0.625745 0.000000 0.917755 0.000005 126.650422 -0.000001 -0.629534 0.000001 0.940221 0.000000 1.709737 10.654490 -0.000000 0.113772 1.960660 -88.303909 81.388643 -0.000015 -0.669734 -0.113771 0.388341 -0.681468 3.565908 133.629564 
